<svg xmlns="http://www.w3.org/2000/svg" viewBox="0 0 774 440" preserveAspectRatio="xMidYMid meet"><path fill="#f7f8f7" d="M383.599-55.003q5.101.003 10.204-.004c105.14-.119 212.435 3.7 412.322 80.226 45.555 46.474 63.407 111.878 64.63 192.847-.005 1.934 0 3.867.007 5.801.225 64.104-12.37 127.972-64.637 190.914-62.544 62.333-175.654 68.181-415.724 80.222q-5.101-.003-10.204.004c-105.14.119-212.435-3.7-412.322-80.226-45.555-46.474-63.407-111.878-64.63-192.847q.005-2.9-.007-5.801c-.225-64.104 12.37-127.972 64.637-190.914C30.42-37.114 143.53-42.962 383.6-55.003m-19.665 90.827C358.948 41.144 355.89 47.377 353 54l-.816 1.832c-3.448 9.523-1.39 20.156 1.941 29.328 1.53 4.967 1.53 4.967.875 7.84-4.91 1.22-9.917 1.22-14.953 1.36q-2.72.09-5.443.184l-2.889.1c-67.261.094-67.261.094-126.316 25.864-3.3 4.063-3.1 7.998-3.043 13.056l-.027 2.882c-.023 3.16-.012 6.32 0 9.48q-.016 3.357-.039 6.714-.04 7.136-.038 14.271c.002 7.395-.03 14.79-.068 22.184l-.046 9.232q-.03 6.44-.05 12.88a4060 4060 0 0 1-.615 57.981q-.087 5.088-.17 10.177-.145 8.817-.303 17.635-.772-1.637-1.52-3.285l-.854-1.848c-.854-2.547-.41-4.729.026-7.336 2.361-17.187-2.458-31.348-9.652-46.781l-1.257-2.708c-2.348-4.833-4.518-8.658-8.743-12.042-3.446.08-4.556.556-7 3a54 54 0 0 0 .125 6.562l.156 2.017c1.847 20.206 10.06 38.047 19.74 55.623 1.672 3.072 3.272 6.179 4.854 9.298l.867 1.671c1.945 3.854 3.171 7.65 4.258 11.829l-1.965-.848c-8.812-3.6-17.829-6.161-27.011-8.652-3.013-.819-6.02-1.655-9.024-2.5l-2.484-.674c-5.744-1.7-9.92-4.42-14.579-8.139l-1.986-1.54a449 449 0 0 1-3.948-3.099 105 105 0 0 0-4.174-3.061c-5.154-3.614-7.986-6.467-9.327-12.86-.47-2.787-.843-5.572-1.19-8.377l-.392-2.844c-2.126-16.29-2.126-16.29.584-21.043l2.058-2.05c9.523-10.768 17.722-29.497 16.918-44.055-.497-2.34-1.03-3.669-2.543-5.508-3.242-1.932-4.511-2.135-8.093-1.535-5.982 2.547-8.346 6.84-11.032 12.472l-1.054 2.186c-4.527 9.618-6.99 21.434-4.267 32.039.565 2.318.718 4.47.825 6.854l.127 2.695.12 2.789.13 2.836q.159 3.457.307 6.914l-.7-2.209c-7.28-22.836-15.618-43.652-30.175-62.979-7.733-11.01-8.657-25.608-10.708-38.566-.393-2.403-.393-2.403-1.417-5.246-.633-6.136.772-9.01 4.375-13.875a981 981 0 0 0 2.758-3.977l1.438-2.067C98.661 107.015 108.885 81.641 107 58c-1.59-2.517-2.786-3.675-5.695-4.453C94.844 52.97 89.942 56.142 85 60c-5.883 5.643-9.046 13.684-12.173 21.078-.752 1.748-1.56 3.456-2.382 5.172-3.811 8.692-3.893 17.536-3.883 26.875v1.93c.04 10.994.781 21.815 4.575 32.222 1.249 3.94 2.146 7.943 3.05 11.973l.543 2.368c.85 3.86 1.5 7.402 1.27 11.382-7.364-7.043-12.92-14.052-17.625-23.125C49.459 132.877 34.588 119.205 16 113c-3.326.252-3.326.252-6 2-.258 8.091 2.672 15.32 8.062 21.281 11.28 10.538 24.658 19.2 38.5 25.973 6.047 3.012 10.11 7.193 14.313 12.391 1.075 1.295 2.224 2.529 3.375 3.757 6.496 7.5 9.204 15.956 12.239 25.263 6.35 19.38 15.836 37.434 25.511 55.335.35.65.7 1.3 1.062 1.969q2.446 4.528 4.938 9.031l-1.474-1.095c-8.759-6.496-17.534-12.957-26.464-19.218-13.43-9.442-25.14-17.966-34.218-31.903-9.422-14.39-21.74-27.545-38.946-32.374-2.068-.43-2.068-.43-4.898-.41-2.317 1.902-2.317 1.902-2.355 5.121.137 4.527 1.954 8.002 4.042 11.941l1.03 2.065c3.493 6.797 7.762 11.91 13.908 16.435l1.58 1.17c6.748 4.843 13.966 7.726 21.857 10.205 8.797 2.853 15.792 7.832 23.07 13.405 4.052 3.091 8.213 5.986 12.43 8.845 8.58 5.84 16.931 11.968 25.242 18.182a471 471 0 0 0 6.079 4.428l3.43 2.515 1.504 1.053c4.525 3.376 7.248 7.876 10.183 12.635-28.501-6.677-28.501-6.677-40.697-11.69-10.025-4.043-20.054-4.661-30.73-4.626-2.032.004-4.063-.02-6.094-.045q-1.957-.004-3.913-.002l-1.821-.028c-3.825.042-6.04.632-8.745 3.391-.312 2.53-.312 2.53 1 5 4.779 3.838 9.54 5.254 15.437 6.687l2.487.643c8.28 2.095 16.03 2.815 24.549 2.88l6.166.087c3.203.04 6.406.078 9.609.104 33.91.305 33.91.305 44.541 10.277 1.795 1.833 3.509 3.716 5.211 5.634q1.836 2.015 3.676 4.028l1.748 1.929c6.32 6.943 13.22 12.934 20.576 18.731l1.568 1.244a851 851 0 0 0 4.87 3.818l1.63 1.275c2.706 2.08 5.422 4.008 8.354 5.757 8.102 4.851 8.102 4.851 9.594 8.156q.417 2.283.671 4.59c.715 4.937 3.793 7.994 7.63 10.937 16.065 10.688 33.887 15.206 52.435 19.612l2.47.595 2.212.523L270 393v1a168 168 0 0 1-7.563 1.562c-.704.14-1.408.278-2.134.42-5.124.959-10.223 1.754-15.374.523-4.353-.75-8.675-.709-13.085-.743l-2.97-.025q-3.1-.02-6.203-.032a749 749 0 0 1-6.342-.062 867 867 0 0 0-9.173-.069l-2.857-.053c-5.542-.041-5.542-.041-10.399 2.318-2.148 2.072-2.148 2.072-2.463 5.161.685 3.651 1.661 4.743 4.563 7 2.86 1.665 4.93 2.255 8.23 2.266l2.436.007 2.521-.023 2.463.023c8.512-.027 16-2.089 24.052-4.685 12.51-4.028 24.99-6.782 37.914-9.127a78 78 0 0 0 4.511-1.005c11.758-2.862 25.305.175 37.073 1.945 23.706 3.468 47.698 3.938 71.613 3.86 3.489-.012 6.977-.005 10.465.007 14.364.04 28.665-.219 43-1.186l1.843-.123c9.936-.682 19.781-1.833 29.633-3.275A760 760 0 0 1 477 398l3.06-.402c8.291-.89 15.493.058 23.565 1.964l3.688.828c9.42 2.147 18.576 4.949 27.746 7.976 8.451 2.761 16.377 3.941 25.253 4.134l2.535.093c6.136.001 10.467-1.553 15.153-5.593 1.484-2.411 1.484-2.411 1-5-2.116-3.325-3.227-4.742-7-6a72 72 0 0 0-4.405-.13l-2.692-.009-2.907.006-3.01-.003q-3.157 0-6.316.006-4.793.006-9.586-.007-3.075 0-6.15.004l-2.865-.006c-5.38.019-10.631.316-15.974.958-2.627.227-4.86-.102-7.408-.757-2.652-.662-4.73-1.061-7.48-1.003-.728-.02-1.457-.04-2.207-.059v-2a167 167 0 0 1 5.598-.682c4.245-.562 8.298-1.807 12.402-3.006l2.779-.808c24.707-7.073 24.707-7.073 43.41-23.743.949-2.06 1.174-3.887 1.471-6.132.763-3.594 1.58-5.327 4.543-7.527q2.001-1.276 4.047-2.477a975 975 0 0 0 4.379-2.809l2.227-1.413c15.719-10.285 30.878-24.263 42.769-38.778 7.02-8.022 17.189-9.498 27.375-10.625 7.796-.409 15.628-.08 23.426.137 15.179.387 38.855.811 51.324-9.598 1.468-1.55 1.468-1.55 1.687-4.102-.157-2.523-.157-2.523-2.051-3.568-3.018-1.1-5.824-1.192-8.995-1.205l-1.937-.025a497 497 0 0 0-6.204-.014l-2.137.003c-10.611.043-20.058.802-30.113 4.372q-2.455.828-4.914 1.648a1084 1084 0 0 0-7.984 2.698C654.88 288.48 645.484 290.804 636 293c4.06-7.042 8.582-11.526 15.187-16.188l2.652-1.926q2.727-1.98 5.465-3.944a571 571 0 0 0 7.669-5.633c8.063-6.013 16.193-11.897 24.523-17.535 2.89-1.959 5.75-3.929 8.52-6.055 7.303-5.592 14.645-8.827 23.28-11.887 7.43-2.67 13.477-5.968 19.704-10.832l1.703-1.172c7.303-5.304 12.624-15.33 15.297-23.828.386-2.557.32-4.391 0-7l-2-2c-10.448 0-20.48 7.363-28 14l-2.32 2c-7.174 6.643-12.337 14.477-17.7 22.61-4.675 6.969-9.256 11.646-16.168 16.452l-4.832 3.426-2.494 1.757a1325 1325 0 0 0-11.861 8.505l-2.26 1.63a868 868 0 0 0-16.08 11.913A108 108 0 0 1 651 271l1.019-1.762c11.04-19.158 21.252-38.432 29.481-58.988l.775-1.933c2.338-5.857 4.604-11.648 6.205-17.758 1.41-4.915 3.865-8.065 7.332-11.747l1.542-1.708a273 273 0 0 1 3.114-3.396c1.551-1.684 1.551-1.684 2.9-3.502 4.086-5.295 8.786-7.735 14.757-10.581 8.39-4.197 15.661-8.67 22.875-14.625a510 510 0 0 1 2.953-2.242c7.493-5.731 13.928-12.223 16.047-21.758.334-3.168.334-3.168 0-6-1.811-2.229-1.811-2.229-4.359-2.256-2.856.277-4.428.921-6.899 2.346l-2.38 1.363-2.487 1.484-2.57 1.522c-15.009 9.05-24.329 19.322-32.058 34.87-3.812 7.31-9.428 12.92-15.247 18.671.524-7.21 2.07-14.032 3.77-21.035l.544-2.262a217 217 0 0 1 1.69-6.236c2.743-9.845 3.76-19.075 3.683-29.28 0-.739-.002-1.478-.004-2.24C703.61 99.443 701.795 89.202 696 78q-1.005-2.127-2-4.258c-3.253-6.733-6.446-12.725-13-16.742l-2.938-1.875c-3.69-1.355-7.175-1.97-11.062-1.125-2.257 1.59-2.905 2.543-3.469 5.258-.292 26.8 9.455 53.245 26.37 73.875 3.35 4.327 3.476 7.512 3.099 12.867-.354 2.77-.869 5.491-1.426 8.227l-.449 2.276q-.47 2.363-.95 4.725a924 924 0 0 0-1.423 7.194q-.462 2.31-.928 4.617l-.417 2.15c-1.205 5.807-3.295 10.495-6.79 15.334-.44.62-.88 1.24-1.335 1.878l-1.407 1.974C664.813 213.137 656.365 233.087 650 255q.212-4.376.437-8.75l.12-2.5.127-2.422.11-2.222c.206-2.106.206-2.106.71-4.119 3.63-14.569-.73-29.14-8.012-41.694-2.028-3.117-3.12-4.647-6.492-6.293-4.062-.669-7.6-.976-11.063 1.437-3.818 10.439 1.641 23.282 5.93 32.903 3.21 6.804 6.493 12.91 11.883 18.277 3.526 6.722.952 16.822.062 24.07-.1.994-.202 1.987-.306 3.01-1.098 8.93-3.867 13.368-10.87 18.908a453 453 0 0 1-4.949 3.582l-2.474 1.827c-8.698 6.313-16.709 9.637-27.088 12.361A456 456 0 0 0 567 313a2475 2475 0 0 1 5.062-10.75l.765-1.615c2.704-5.698 5.42-11.3 8.798-16.635 9.184-15.107 14.807-33.076 16.25-50.625l.187-2.086c.176-2.922.284-4.785-1.406-7.246-1.665-1.245-1.665-1.245-4.031-1.106-6.184 2.504-8.998 9.236-11.625 15l-1.033 2.232c-4.94 10.905-9.17 22.055-9.092 34.143l-.005 2.031c.015 3.4.204 6.513.942 9.844.635 3.77-.801 6.676-2.3 10.051l-.726 1.683A542 542 0 0 1 567 302l-.02-2.766q-.243-33.3-.555-66.6c-.1-10.736-.193-21.471-.269-32.207q-.098-14.034-.242-28.069c-.05-4.955-.094-9.91-.12-14.864q-.04-6.995-.129-13.989-.028-2.568-.033-5.136a539 539 0 0 0-.075-7.01l.012-2.055c-.111-4.674-1.323-6.99-4.569-10.304-11.985-9.182-27.61-12.561-42-16l-1.912-.46c-19.717-4.64-40.128-5.803-60.276-7.165l-2.94-.201c-9.802-.663-19.581-1.245-29.407-1.338l-2.167-.03c-3.28-.042-6.55-.05-9.83.012-2.975-.019-5.597-.038-8.468-.818-2.1-4.6-.854-8.18.489-12.889C407.2 68.911 405.69 56.907 400 47l-1.352-2.445A48.2 48.2 0 0 0 380 27c-5.938 0-11.73 4.996-16.066 8.824"/><path fill="#c9d0c4" d="m240 178 2.773 1.271c8.736 3.955 17.283 5.84 26.737 7.327 6.752 1.067 13.176 2.54 19.743 4.407 12.315 3.365 25.096 4.818 37.745 6.303 2.67.315 5.34.643 8.008.973 18.935 2.287 37.87 2.951 56.932 2.969l2.654.004c18.483-.006 36.974-.898 55.139-4.54 23.681-4.715 55.496-4.894 77.396 6.381 2.33 2.37 2.316 4.008 2.297 7.254l-.073 2.193-.026 2.324q-.03 2.505-.087 5.012c-.1 4.546-.138 9.093-.18 13.64-.01.947-.02 1.894-.032 2.87-.07 8.244.173 16.46.482 24.697.23 6.197.35 12.396.448 18.597.076 4.506.204 9 .433 13.5 1.411 28.823 1.411 28.823-3.54 35.33-5.507 5.36-12.834 7.729-20.056 9.84-7.526 2.282-12.638 6.883-17.168 13.148-7.38 8.336-18.622 11.312-29.416 11.983-4.815.231-9.625.338-14.446.343l-5.724.008c-4.65.052-8.625.747-13.039 2.166 4.406 1.469 8.698 1.184 13.313 1.188l2.841.037c5.137.01 8.973-.53 13.846-2.225 3.779-.528 7.572-.826 11.375-1.125l3.098-.262q3.762-.315 7.527-.613c-3.93 8.45-3.93 8.45-7.867 10.473L468 374l-3.258.746c-44.574 8.395-95.689 9.212-140.615 2.663-3.287-.43-6.558-.675-9.865-.901-15.88-1.375-15.88-1.375-21.02-7.125-2.665-3.56-4.847-7.356-6.992-11.246C280.254 347.89 270.787 340.653 260 336a134 134 0 0 0-4.609-1.06c-5.508-1.433-9.956-3.226-13.391-7.94-3.186-10.757-2.013-22.71-1.64-33.792.13-4.426.156-8.852.19-13.28.052-6.187.133-12.373.255-18.56.247-12.64.071-25.237-.283-37.874-.132-4.749-.238-9.498-.338-14.248l-.056-2.557c-.191-9.563-.17-19.125-.128-28.689m11 16c8.1 12.342 23.393 16.796 37 20l2.45.594c23.03 5.526 23.03 5.526 45.55 1.406-3.217-2.366-6.57-2.852-10.437-3.5l-2.262-.395c-4.9-.817-9.78-1.363-14.729-1.772-16.723-1.389-31.475-6.436-47.025-12.563A167 167 0 0 0 251 194m60 30a56 56 0 0 0-.262 3.955l-.096 2.579-.089 2.851-.102 2.986c-.296 9.07-.48 18.143-.621 27.217-.098 6.109-.235 12.21-.47 18.315a588 588 0 0 0-.391 17.666 208 208 0 0 1-.22 6.757c-.829 9.753-.829 9.753 2.251 18.674 6.524 2.775 14.243 1.248 21 0-1.19-3.645-2.465-7.148-4.055-10.638-9.51-21.024-13.433-44.422-14.507-67.362l-.131-2.637q-.157-3.18-.307-6.363c4.516 3.105 6.505 6.216 8.82 11.125l1.032 2.107a730 730 0 0 1 2.162 4.459c1.868 3.883 3.78 7.745 5.685 11.61l1.132 2.303c14.59 32.173 14.59 32.173 39.435 55.888 3.208.94 6.437.999 9.734.508 1.508-1.508 1.187-2.846 1.262-4.955l.096-2.579.089-2.851.102-2.986c.296-9.07.48-18.143.621-27.217.098-6.109.235-12.21.47-18.315.225-5.89.343-11.772.391-17.666a208 208 0 0 1 .22-6.757c.829-9.753.829-9.753-2.251-18.674-6.524-2.775-14.243-1.248-21 0 1.21 3.706 2.513 7.282 4.106 10.842 8.948 20.015 12.419 41.364 13.957 63.095l.275 3.807q.334 4.627.662 9.256c-5.054-2.112-7.579-4.375-10.625-8.875l-1.265-1.823c-9.794-14.436-17.74-30.057-25.289-45.753C334.867 235.68 334.867 235.68 320 223c-2.246-.39-2.246-.39-4.312-.25l-2.051.047c-1.677.038-1.677.038-2.637 1.203m98 3-2.434 1.285c-6.634 3.91-11.122 9.382-13.566 16.715-.878 10.342-.363 18.395 6.434 26.766 9.414 9.297 24.623 10.637 36.997 12.78q3.99.706 7.967 1.477l2.393.463c4.07.947 7.574 2.512 11.147 4.702 1.834 3.128 1.66 6.301 1.062 9.812-2.358 4.42-5.267 5.842-9.805 7.422-14.14 3.724-30.299 3.218-43-4.137a143 143 0 0 1-3.175-1.947c-2.623-1.646-3.843-2.338-7.02-2.338a42 42 0 0 0-2.75 5.75l-.707 1.633c-.967 2.375-1.565 4.277-1.398 6.851 2.67 5.511 11.125 7.866 16.46 9.97 11.691 3.89 25.304 2.956 36.395-2.204 8.155-4.2 14.723-10.128 18.086-18.8 2.05-7.177 2.024-14.726-1.086-21.575-5.404-9.236-13.097-13.35-23.128-16.161-5.545-1.374-11.196-1.925-16.872-2.464q-3.787-.368-7.575-.747a467 467 0 0 0-4.992-.469c-8.321-.797-8.321-.797-11.433-2.784-1.07-3.712-.752-7.236 0-11 3.07-5.111 9.58-6.541 15-8l1.892-.523c12.866-2.91 27.619-.096 39.522 4.972 1.779.715 1.779.715 4.586.551 1.05-2.573 1.05-2.573 1.688-5.75.25-1.067.502-2.135.761-3.234.662-3.501.662-3.501.551-7.016-2.071-1.438-3.651-2.165-6-3l-2.262-.852C439.617 221.05 421.247 220.066 409 227"/><path fill="#443d41" d="M382 28c11.751 7.406 18.672 18.015 23 31 .227 3.058.185 6.122.188 9.188l.037 2.501c.01 4.768-.413 8.951-1.8 13.521-.779 3.28-.412 5.567.575 8.79 2.497.983 2.497.983 5 1v1h-5.062c-3.486.276-5.314.424-7.91 2.82a151 151 0 0 0-3.266 4.746c-2.859 3.949-6.66 6.836-10.762 9.434h-2c-.208 1.695-.208 1.695-.062 3.75.127 2.987-.168 5.366-.938 8.25.53-.01 1.058-.02 1.604-.032 28.024-.47 55.717 1.735 83.396 6.032l3.182.493c41.164 6.539 41.164 6.539 52.818 17.507 0 2.688 0 2.688-2 5-3.325.752-6.598.931-10 1 1.26-2.773 2.169-3.064 5.125-4.187L516 149c-27.224-11.065-56.782-15.939-86-18l-1.988-.155c-16.292-1.263-32.681-1.41-49.012-1.845l1 3c.091 1.373.13 2.75.133 4.125l.004 2.39-.012 2.485.012 2.484-.004 2.391-.004 2.18C380 150 380 150 379 153h-2c-3.065-8.002-2.727-16.07 0-24-39.096 1.175-79.716 2.718-116.621 17.117C258 147 258 147 256 147l1 3c2.66.684 5.148 1.155 7.855 1.535l2.461.376q2.606.395 5.214.769c2.576.37 5.149.762 7.722 1.158 21.169 3.193 42.447 4.575 63.81 5.725l3.56.195c23.449 1.28 46.897 1.924 70.378 2.242-3.85 2.518-7.5 2.283-11.936 2.259l-2.417.01c-2.646.01-5.29.003-7.936-.003l-5.58.005q-5.874.005-11.748-.01c-4.94-.011-9.879-.005-14.819.007-20.605.041-41.057-.04-61.564-2.268l-2.748-.292a750 750 0 0 1-15.424-1.83c-2.49-.32-4.981-.628-7.473-.935l-4.957-.627-2.403-.299c-3.917-.513-7.742-1.148-11.588-2.057l-2.203-.5a92 92 0 0 1-4.062-1.05c-2.058-.557-2.058-.557-5.142-.41-3.134 2.425-4.758 5.071-5.75 8.875 1.337 5.572 4.564 9.025 9.33 12.166C269.157 186.679 292.672 190.702 315 193c-.791 1.51-.791 1.51-2 3-2.802-.134-5.259-.472-8-1l-2.867-.53a808 808 0 0 1-9.633-1.907l-3.3-.659c-4.514-.908-9.01-1.823-13.466-2.982-3.27-.846-6.536-1.404-9.874-1.91-9.078-1.394-16.645-3.904-24.86-8.012-.053 10.053-.037 20.098.219 30.148l.066 2.672.14 5.608.075 2.947.078 3.057c.354 14.478.437 28.935.302 43.416q-.036 4.026-.064 8.052l-.039 5.372-.019 2.686c-.04 5.353-.11 10.704-.197 16.055a1062 1062 0 0 0-.09 10.096 347 347 0 0 1-.075 4.757c-.048 2.18-.059 4.359-.061 6.54l-.07 1.95c-.046 1.983-.046 1.983.735 4.644 2.852 1.462 2.852 1.462 6 2 20.856 9.082 38.6 22.2 49 43 2.115.515 4.142.899 6.29 1.219l1.982.313q2.105.33 4.212.645c2.058.31 4.113.638 6.168.968 21.453 3.361 42.847 4.233 64.52 4.173q3.068-.008 6.137-.01c20.725-.033 41.31-.5 61.899-3.087 1.799-.222 3.6-.426 5.401-.627a340 340 0 0 0 9.829-1.281l2.784-.34c3.672-.615 5.96-1.044 8.474-3.901 1.591-2.43 1.591-2.43 3.304-6.072h-14c4.464-3.348 4.464-3.348 7.723-4.184 8.88-2.533 14.407-5.074 20.255-12.282 4.987-6.02 11.119-9.09 18.022-12.534q2.19-1.131 4.379-2.266c2.799-1.436 5.6-2.867 8.418-4.265l1.73-.862C526 327 526 327 528 327c.192-2.346.24-4.576.211-6.924l-.004-2.239c-.006-2.48-.027-4.959-.047-7.439l-.016-5.242q-.021-6.976-.065-13.953-.072-12.277-.106-24.555l-.008-2.708c-.034-13.535.126-27.058.469-40.588l.06-2.52q.085-3.473.187-6.947l.052-2.085c.151-4.684.151-4.684 1.267-5.8.147-2.155.235-4.283.281-6.441l.056-1.947c.079-2.759.147-5.518.215-8.277q.08-3.014.167-6.026l.04-1.913c.043-1.467.136-2.932.241-4.396h1c.158 1.514.158 1.514.205 3.697l.06 2.517.051 2.837.064 3.02q.083 4.224.152 8.448.045 2.684.095 5.367c.716 40.365.461 80.745.373 121.114l3.113-1.207 2.02-.77q2.193-.84 4.374-1.713c4.425-1.722 8.151-2.488 12.914-2.85 2.7-.507 2.7-.507 4.579-2.46 2.197-6.727 1.387-14.379 1.258-21.348q0-3.306.013-6.613c.01-5.252-.028-10.503-.09-15.755-.073-6.375-.082-12.75-.087-19.126-.01-6.797-.021-13.595-.055-20.392-.065-13.783-.02-27.557.27-41.338q.058-2.783.106-5.567.07-3.786.167-7.57l.036-2.264c.05-1.68.203-3.356.382-5.027h2c.207-2.749.207-2.749.063-6-.054-2-.084-4-.063-6h1c.123 1.352.168 2.71.19 4.067l.05 2.758.041 3.093.055 3.272q.074 4.54.137 9.08.055 3.84.117 7.677c.596 38.016.99 76.035 1.41 114.053a704 704 0 0 0 2.512-5.762l.727-1.637c1.644-3.846 2.021-6.289 1.175-10.304-3.43-19.024 4.375-40.06 14.777-55.766 3.143-4.398 3.143-4.398 4.809-5.531 3.342.245 4.605.605 7 3 .091 2.461.05 4.742-.125 7.188l-.152 2.167c-1.938 22.846-13.297 43.653-23.986 63.46-2.484 4.63-4.735 9.325-6.737 14.185l1.668-.664c6.46-2.464 12.996-4.45 19.644-6.336l2.766-.788c4.014-1.136 8.03-2.252 12.074-3.274 7.356-1.887 12.85-4.286 18.848-8.938a2110 2110 0 0 1 4.223-3.102q2.327-1.728 4.652-3.46l2.275-1.68c5.813-4.415 8.606-7.573 9.8-14.926q.386-3.008.737-6.02l.393-3.001c1.838-10.84 1.838-10.84-.33-21.194l-1.75-1.742c-9.668-11.156-16.916-28.338-17.5-43.187.189-2.374.609-3.986 1.438-6.25 2.877-2.006 5.267-1.922 8.71-1.97 3.881.877 6.302 2.913 8.464 6.247 1.097 2.004 2.098 4.033 3.076 6.097l1.037 2.08c3.79 7.782 5.09 14.131 4.962 22.796l-.001 2.548c-.028 3.801-.248 7.079-1.186 10.764a92 92 0 0 0-.316 4.328l-.127 2.422-.12 2.5-.13 2.547A1859 1859 0 0 0 650 255l.7-2.225c4.482-14.149 9.009-27.781 16.3-40.775q.983-1.825 1.96-3.652a120.3 120.3 0 0 1 13.06-19.336c5.177-7.188 6.147-16.982 7.77-25.496.398-2.08.81-4.156 1.224-6.233 2.94-11.599 2.94-11.599.115-22.564a147 147 0 0 0-2.567-3.219c-15.847-20.76-25.318-45.866-25.03-72.242.562-2.71 1.232-3.652 3.468-5.258 3.712-1.106 7.026-.41 10.535 1.066C689.34 61.601 694.067 72.99 699 85l1.114 2.632c3.075 8.042 3.506 15.427 3.407 23.92-.02 2.182 0 4.36.026 6.542.019 9.516-1.398 18.025-4.042 27.152-.714 2.48-1.351 4.98-1.99 7.48-.638 2.475-1.278 4.948-1.933 7.419-1.13 4.418-1.848 8.293-1.582 12.855 7-6.808 12.673-13.518 17.25-22.187 8.908-16.849 20.517-26.029 37.1-34.887 1.67-.899 1.67-.899 3.205-2.028 2.183-1.356 3.94-1.155 6.445-.898 2 2 2 2 2.188 4.031-.688 9.048-4.413 15.653-11 21.844A159 159 0 0 1 744 143l-1.746 1.335c-8.243 6.223-16.673 11.552-25.817 16.352-7.32 3.887-12.579 7.476-17.437 14.313q-1.26 1.504-2.54 2.992a1749 1749 0 0 0-2.71 3.258l-1.252 1.443c-3.564 4.482-4.911 9.43-6.47 14.863-1.602 5.52-3.786 10.82-5.966 16.131l-.705 1.73c-7.912 19.3-17.403 37.83-28.357 55.583l1.199-.911c8.392-6.365 16.86-12.593 25.485-18.639A866 866 0 0 0 692.25 241l1.842-1.348a488 488 0 0 0 3.382-2.51 349 349 0 0 1 4.147-3.044c2.94-2.593 4.99-5.438 7.192-8.66l2.648-3.774a906 906 0 0 0 3.599-5.212C724.722 202.358 736.624 190.82 753 185c2.813-.312 2.813-.312 5 0 2 2 2 2 2.352 5.125-.138 4.494-1.902 7.96-3.977 11.875l-1.12 2.147c-8.68 16.247-23.267 22.968-40.04 28.826-5.67 2.075-10.063 4.86-14.863 8.511-4.188 3.184-8.53 6.144-12.852 9.141-9.967 6.947-19.776 14.092-29.5 21.375l-2.007 1.502a1081 1081 0 0 0-5.368 4.06l-1.531 1.156c-5.463 4.197-9.439 8.46-13.094 14.282 14.645-3.6 29.062-7.442 43.307-12.422l2.806-.976 2.431-.865c5.197-1.56 10.287-1.896 15.683-1.905l2.03-.01q2.11-.007 4.22-.007c2.149-.003 4.297-.02 6.445-.04q2.059-.005 4.117-.005l1.935-.022c3.484.018 6.138.205 9.026 2.252.563 2.375.563 2.375 0 5-13.887 13.013-40.207 11.334-57.728 10.938-24.219-.78-24.219-.78-45.213 9.818-1.928 1.941-3.75 3.943-5.559 5.994l-3.922 4.3-1.873 2.074c-10.6 11.666-22.805 20.82-35.568 29.958l-2.136 1.53c-1.792 1.243-3.618 2.377-5.481 3.51-2.627 1.612-2.627 1.612-3.332 3.956L567 358.25c-1.323 7.5-5.393 11.835-11.458 16.157-12.088 8.077-26.09 11.99-39.917 16.03-.886.26-1.771.52-2.684.786-4.142 1.164-7.614 1.857-11.941 1.777v2c2.17.442 2.17.442 4.875.563 4.666.33 9.29.785 13.934 1.351 2.156.191 2.156.191 4.04-.399 2.32-.555 4.366-.656 6.748-.676l2.741-.03 2.94-.012 3.04-.017q3.182-.014 6.362-.02c3.242-.01 6.483-.041 9.724-.072q3.093-.01 6.186-.016l2.933-.038c5.791.02 9.586.475 13.852 4.741 1.052 2.736.787 3.914-.375 6.625-5.36 4.645-10.377 5.82-17.312 5.625l-2.625-.04c-10.79-.387-20.75-3.497-30.93-6.855-15.96-5.249-33.3-10.628-50.133-7.73-3.476.505-6.956.971-10.437 1.438l-2.814.377c-7.81 1.011-15.615 1.741-23.472 2.267l-1.93.13c-14.384.947-28.748 1.096-43.16 1.049-3.489-.012-6.977-.005-10.465.007-23.811.066-47.676-.58-71.26-4.13-30.007-4.442-56.117.716-84.634 11.007-6.352 1.921-12.738 2.09-19.328 2.168l-2.473.087c-5.549.058-9.655-.823-14.027-4.4-1.437-2.875-1.382-4.819-1-8 2.273-2.61 3.722-3.791 7.158-4.352 2.675-.128 5.32-.124 7.998-.074l2.97.01c3.125.016 6.249.06 9.374.103q3.154.018 6.309.03a3861 3861 0 0 1 8.892.067c4.235.062 8.16.227 12.299 1.216 5.34.248 10.204-.408 15.438-1.437l2.216-.409c1.79-.342 3.57-.743 5.346-1.154v-1c-1.84-.525-3.699-.983-5.562-1.418l-3.582-.853-1.909-.452c-44.812-10.682-44.812-10.682-54.26-25.652-1.495-2.562-1.703-3.965-1.851-7.031-.293-2.27-.563-3.307-2.154-4.98-1.863-1.353-3.77-2.554-5.744-3.739a665 665 0 0 1-4.395-2.852l-2.284-1.489c-15.452-10.493-31.035-24.306-42.759-38.846-6.135-7.079-14.58-8.457-23.5-9.688-3.554-.246-7.09-.277-10.652-.273l-6.045-.063q-4.659-.034-9.318-.045c-40.794-.13-40.794-.13-52.739-10.08C42 284 42 284 42.125 281.438 43 279 43 279 44.155 277.866c2.693-1.264 5.325-1.171 8.243-1.167l1.912-.013q2.01-.008 4.02-.002c2.004.003 4.006-.02 6.01-.045 12.858-.067 24.045 2.957 36.16 7.236 11.017 3.794 22.113 6.68 33.5 9.125-4.591-7.743-9.774-12.57-17.11-17.667-2.924-2.062-5.783-4.208-8.653-6.343a1031 1031 0 0 0-23.369-16.859 558 558 0 0 1-11.805-8.506c-7.553-5.464-14.593-9.607-23.438-12.562-16.11-5.384-27.92-13.769-36.176-28.907C10.91 196.947 9.134 192.812 10 187l2-2c11.662 0 23.865 9.245 32 17 5.777 6.213 10.536 13.203 15.125 20.313 7.216 11.063 16.83 17.718 27.547 25.074 3.942 2.731 7.821 5.548 11.703 8.363l2.275 1.646A6940 6940 0 0 1 118 270l-1.058-1.925c-24.68-45.068-24.68-45.068-31.684-67.516-3.465-11.07-7.545-18.763-15.786-27.01-1.551-1.632-2.895-3.36-4.28-5.135-3.429-4.039-7.465-5.987-12.192-8.226-8.665-4.336-16.346-9.275-24-15.188l-3.094-2.312C18.443 136.985 12.1 130.45 10 121c-.25-3.25-.25-3.25 0-6l2-2c5.007.292 8.817 2.141 13.125 4.5l1.977 1.074c15.21 8.48 24.499 18.456 32.526 33.813C63.966 160.444 69.42 166.707 76 173c-.238-9.642-2.831-18.527-5.386-27.763a481 481 0 0 1-1.712-6.382l-.457-1.749c-3.34-15.804-4.389-37.522 2.712-52.343.974-2.037 1.857-4.105 2.745-6.181 4.411-10.01 8.652-18.537 18.79-23.7 3.421-1.307 6.75-1.985 10.308-.882 2.234 1.68 2.234 1.68 4 4 .277 2.637.277 2.637-.062 5.688l-.19 1.708A240 240 0 0 1 106 71l-.247 1.928c-3.124 23.877-12.448 45.199-27.644 63.904-2.862 5.593-.609 12.422.704 18.23l1.109 5.055.557 2.503c.47 2.147.917 4.296 1.35 6.45.124.616.25 1.232.379 1.867q.495 2.444.983 4.887c1.725 6.775 4.09 12.04 8.371 17.551C105.285 211.922 113.602 232.979 120 255q-.212-4.875-.437-9.75l-.12-2.79-.127-2.694-.11-2.476c-.198-2.199-.655-4.158-1.206-6.29-.916-14.81 1.708-30.442 11.766-42.035 2.908-2.352 5.227-3.296 8.984-3.028 3.643 1.192 4.325 1.872 6.25 5.063 3.37 13.091-5.89 30.324-12.29 41.383-1.557 2.383-3.16 4.28-5.148 6.304-3.154 3.409-2.848 6.03-2.728 10.502.278 4.697.792 9.337 1.416 13.999l.332 2.865c1.032 7.792 2.784 13.022 8.992 18.045a261 261 0 0 0 4.113 2.964l2.03 1.487a276 276 0 0 0 4.15 2.958 174 174 0 0 1 4.252 3.074c5.825 4.192 11.54 6.17 18.444 7.981q3.184.882 6.367 1.766l3.124.854c4.07 1.13 8.104 2.362 12.133 3.63l1.903.59A117 117 0 0 1 202 313c-2.623-8.936-6.393-16.873-10.937-25-6.33-11.329-11.74-22.403-15.063-35l-.809-2.754c-1.598-5.743-2.578-11.38-3.066-17.309l-.186-1.95c-.183-2.834-.243-4.547 1.4-6.924 1.661-1.063 1.661-1.063 4.099-1 7.338 2.684 9.756 10.904 12.83 17.461 6.964 15.224 10.854 29.247 8.044 46.039-.306 3.372-.173 4.251 1.168 7.152l.853 1.875L201 297q.175-9.8.336-19.601.084-5.145.173-10.291c.334-19.244.525-38.486.585-57.733q.021-6.446.053-12.89l.01-1.846q.017-3.697.036-7.393.059-11.085.059-22.17c0-5.276.026-10.552.06-15.828q.015-3.296.005-6.592c-.01-3.031.011-6.061.04-9.092l-.031-2.686c.085-5.054.777-7.974 4.285-11.694 2.573-2.193 5.353-3.725 8.389-5.184l2.082-1.016c5.632-2.625 11.392-4.573 17.356-6.296l2.412-.698c14.486-3.923 29.53-5.75 44.4-7.552l2.671-.328c16.863-2.033 33.712-2.982 50.682-3.565l2.787-.097q2.571-.086 5.142-.157c6.305-.135 6.305-.135 12.468-1.291.084-4.614-1.088-8.296-2.562-12.625-3.698-11.935-1.617-23.399 4.105-34.32C361.349 37.983 371.261 24.64 382 28m-11.55 5.406c-9.286 9.385-14.48 22.395-14.95 35.469.22 14.264 5.113 25.971 15.105 36.129 1.516 1.287 1.516 1.287 4.395.996.563-2.462.563-2.462.625-5.5l.2-3.297L376 94a87 87 0 0 1 1-8h2c.347 1.652.347 1.652.492 3.938l.2 2.46q.183 2.601.343 5.204l.207 2.46.152 2.286L381 104c1.96.436 1.96.436 4 0 4.905-3.707 7.829-9.157 10.375-14.625l.76-1.63c4.947-11.26 4.628-26.496.202-37.89C392.684 41.41 386.83 33.016 379 28c-3.654 0-5.967 3.043-8.55 5.406M85.042 66.461c-13.537 20.586-15.704 40.706-13.446 64.766.293 2.018.293 2.018 2.403 3.773 1.9-2.096 3.499-4.136 5.125-6.437.49-.687.981-1.374 1.487-2.08C88.855 114.711 94.29 102.858 98 89l.48-1.757c2.315-8.52 2.315-8.52 3.52-17.243l.266-3.09.171-3.347.184-3.184L102 58c-7.204-1.29-12.659 3.056-16.957 8.46M668 58c-1.208 7.686.57 15.735 2.125 23.25l.685 3.324c3.923 18.186 12.5 36.55 25.19 50.426 2.137-.783 2.137-.783 2.612-2.67.786-4.722.614-9.532.628-14.308.01-1.922.04-3.844.072-5.766.11-12.26-2.164-23.042-7.625-34.131l-1.107-2.39c-4.102-8.532-9.238-15.153-18.357-18.36-1.843-.493-1.843-.493-4.223.625M346.492 95.367l-1.812.118c-6.646.435-13.289.905-19.93 1.389q-2.28.164-4.557.32c-60.048 3.26-60.048 3.26-112.193 28.806-.358 2.801-.405 4.377 1.152 6.773 9.378 8.414 25.678 15.06 38.286 15.29 3.136-.676 5.693-2.166 8.5-3.688 28.314-15.149 67.152-18.14 98.738-18.516l3.814-.058c1.938-.03 3.875-.051 5.813-.051 1.917-.004 3.831-.038 5.748-.078l3.396-.028L376 125c1.44-3.98 1.094-7.55.125-11.602-1.894-4.038-5.272-6.481-8.664-9.246-2.728-2.386-4.389-4.739-6.035-7.937-3.233-2.755-10.906-1.111-14.934-.848M14 118c-.173 6.76 4.426 12.24 8.836 16.969C30.368 142.01 45.354 156 56 156c-5.226-17.637-19.69-27.542-35-36l-2.258-1.254c-1.886-.943-1.886-.943-4.742-.746m735.559 1.688-2.004 1.105-4.293 2.447c-12.76 7.423-23.116 17.05-29.262 30.76v2c4.495-.552 7.73-2.42 11.438-4.875l1.828-1.197C744.983 138.384 744.983 138.384 756 121v-3c-3.043 0-3.89.28-6.441 1.688M210 150c-3.51 5.36-4.501 9.824-4.312 16.125l.062 2.437c.13 5.03.267 10.058.422 15.087.586 19.142.93 38.278 1.074 57.43l.025 3.235c.078 9.917.15 19.835.206 29.752q.048 8.256.12 16.51.024 3.113.037 6.225c.012 2.86.036 5.72.063 8.579l.002 2.574.03 2.34.012 2.036c.132 1.937.132 1.937 2.259 3.67 1.677.682 1.677.682 3.598 1.184.72.205 1.44.41 2.181.623l2.284.63c4.605 1.296 9.184 2.62 13.72 4.145l2.407.808 1.81.61.013-1.546a52478 52478 0 0 1 .877-95.9q.12-12.228.208-24.456.059-8.134.157-16.27.052-4.293.073-8.586c.015-3.047.053-6.093.098-9.14l-.006-2.554c.117-5.47 1.423-9.075 4.58-13.548l-2.527-.836a484 484 0 0 1-7.164-2.453l-3.871-1.336-1.96-.695c-7.214-2.466-11.21-2.432-16.478 3.32M14 190c.252 8.168 5.837 16.49 11.25 22.383C32.813 219.372 42.894 225.593 53 228c2.122-.423 2.122-.423 4-1-9.353-15.732-21.158-30.568-39-37-2.243-.67-2.243-.67-4 0m707.727 23.815c-3.351 4.493-6.302 9.12-8.727 14.185 13.489-2.424 26.307-8.748 35.207-19.39C751.815 203.357 756 196.47 756 190c-12.59-2.59-27.59 15.137-34.273 23.815M131.328 194.12c-7.69 10.88-10.197 21.706-9.328 34.879.473 2.494 1.112 4.614 2 7 3.77-3.317 5.768-6.875 7.938-11.312l1.044-2.126c7.125-14.657 7.125-14.657 8.018-30.562-1.036-1.23-1.036-1.23-3.25-1.375-3.04.415-4.378 1.226-6.422 3.496M629 192c-.327 5.356.46 9.823 2 14.938l.658 2.207c1.71 5.44 3.87 10.562 6.404 15.667l.995 2.01c1.891 3.644 3.825 6.421 6.943 9.178 3.924-8.147 3-18.941.375-27.375-3.808-10.274-3.808-10.274-11.375-17.625-3.294-.447-3.294-.447-6 1m-452 36c-.917 5.994.348 12.212 1.625 18.063l.536 2.48c2.8 12.313 7.365 23.62 13.839 34.457 3.915-6.811 2.366-14.755.5-22.062-2.982-10.892-7.642-23.846-14.5-32.938zm415 0c-3.27 3.663-5.407 7.425-7.437 11.875-.3.646-.598 1.292-.905 1.958-3.099 6.873-5.49 13.953-7.658 21.167l-.621 2.047c-.521 2.687-.55 5.28-.567 8.015l-.042 3.16c.222 2.686.49 3.79 2.23 5.778 5.09-7.05 7.981-14.922 11-23l.977-2.547c3.237-8.961 4.93-18.926 4.023-28.453zM48 281c1.447 3.438 1.447 3.438 4.766 5.195q1.734.494 3.484.93l1.906.499c10.746 2.708 21.106 3.555 32.157 3.626l3.132.028 2.918-.012 2.634-.007L101 291l1-2a81 81 0 0 0-7.625-3l-2.385-.811C77.396 280.383 63.23 280.758 48 281m621 8 1 2c2.922.487 5.918.331 8.875.313l2.71-.013c13.058-.216 27.444-1.679 39.415-7.3l1-2c-13.241-6.62-40.535-.377-53 7m-520 13c1.488 3.446 3.448 5.718 6.078 8.379l1.222 1.238q1.967 1.981 3.95 3.945l1.366 1.362c7.36 7.317 14.96 14.004 23.384 20.076q1.932 1.421 3.863 2.844c6.187 4.78 6.187 4.78 13.137 8.156 1.02-3.971 1.194-7.05 0-11-3.448-3.772-8.37-6.089-12.741-8.628-3.914-2.377-7.571-5.1-11.259-7.81l-2.276-1.648a704 704 0 0 1-11.025-8.152l-2.053-1.54a379 379 0 0 1-3.789-2.884c-3.25-2.439-5.691-3.932-9.857-4.338m463.5 3.625-1.703 1.2a634 634 0 0 0-10.211 7.433l-2.329 1.723a929 929 0 0 0-4.782 3.575c-4.205 3.141-8.443 6.097-12.916 8.846l-2.662 1.675a149 149 0 0 1-5.106 3.045c-2.36 1.489-4.078 2.67-5.791 4.878-.676 3.768-.506 7.219 0 11 14.444-7.858 27.318-18.501 39-30l2.004-1.947q3.165-3.078 6.308-6.178l2.017-1.976 1.847-1.844 1.653-1.641c1.384-1.365 1.384-1.365 1.171-3.414-3.766 0-5.564 1.513-8.5 3.625M167 307c4.3 4.624 9.152 8.232 14.25 11.938l2.45 1.802c8.507 7.367 8.507 7.367 18.3 11.26 1.187-4.862 2.023-10.258 0-15-3.695-3.133-9.064-3.645-13.685-4.514-3.804-.799-7.445-2.068-11.127-3.298-4.984-1.657-4.984-1.657-10.188-2.188m428.754 1.172c-.832.25-1.665.5-2.522.759l-2.67.819-2.714.825c-11.184 2.459-11.184 2.459-20.848 7.425a185 185 0 0 0-.062 7.563l.013 2.154q.02 2.64.049 5.283c5.814-2.652 10.776-5.835 15.813-9.75l4.18-3.195 2.049-1.572c3.612-2.736 7.315-5.345 11.017-7.96 2.05-1.385 2.05-1.385 2.941-3.523-2.815 0-4.588.367-7.246 1.172M211 320c1.348 9.779 7.561 20.914 14.836 27.45 3.797 2.72 7.877 4.723 12.164 6.55l-.518-2.196c-.47-2.738-.442-4.92-.2-7.675.492-8.201.492-8.201-1.282-16.129-4.056-3.804-9.702-4.688-15.021-5.61-2.468-.486-4.662-1.43-6.979-2.39zm340.438 1.46c-.88.308-1.759.615-2.665.93l-2.773.985-2.773.96c-5.478 1.667-5.478 1.667-10.227 4.665-.458 1.927-.458 1.927-.406 4.14l-.067 2.497-.027 2.613c-.065 6.101-.29 10.478-3.5 15.75l-1 2c14.79-5.453 22.217-13.834 28.818-27.809l.862-1.898.773-1.702c.71-1.783.71-1.783.547-4.591-3.001 0-4.76.482-7.562 1.46M242 331c-.952 7.027-1.62 15.846 2 22.125 12.271 10.625 31.227 15.907 47 17.875-3.426-6.703-7.999-12.406-13-18l-1.59-1.866c-5.85-6.415-12.684-9.85-20.348-13.634q-1.884-.956-3.767-1.914c-4.98-3.016-4.98-3.016-10.295-4.586m255 17c-1.216 1.592-1.216 1.592-2 3 5.955-1.567 10.818-4.744 16-8-5.753 7.083-11.28 12.845-20.062 15.813-5.853 2.107-8.646 6.086-11.938 11.187 3.334 1.111 4.193.895 7.465-.04l2.657-.75 2.815-.835 2.877-.844c17.772-5.26 17.772-5.26 31.948-16.699 1.722-3.939 1.602-7.398 1.488-11.644l-.016-2.39c-.025-2.904-.025-2.904-.234-5.798-8.829 0-24.42 11.231-31 17m-285-4c5.097 13.152 10.217 19.307 23 25l2.273 1.015c13.744 6.007 27.992 10.65 42.559 14.212l2.136.525c2.27.277 3.865-.069 6.032-.752l-1.95-.975-2.738-1.369-3.031-1.515-6.618-3.313c-7.027-3.52-7.027-3.52-14.081-6.984-11.153-5.44-21.851-11.62-32.582-17.844q-4.122-2.38-8.25-4.75l-1.752-1.016c-2.352-1.578-2.352-1.578-4.998-2.234m341.559 1.965-1.681.935-3.578 1.996a3600 3600 0 0 1-5.602 3.124 2117 2117 0 0 0-17.504 9.847c-7.55 4.294-15.233 8.242-23.029 12.067-4.065 2.002-8.114 4.037-12.165 6.066l-4.625 2.313-1.977.988L482 384c3.476 1.191 5.687.795 9.191-.187l3.085-.858 3.286-.955 1.687-.484c15.527-4.458 30.622-9.683 44.824-17.466a190 190 0 0 1 3.975-2.104c6.495-3.258 6.495-3.258 11.952-7.946 1.168-3.902 1.105-7.084 0-11-2.223 0-4.513 1.884-6.441 2.965M300 377c1.465 4.7 2.667 8.353 7 11 14.153 5.106 29.474 4.1 44.268 3.904 2.447-.03 4.894-.048 7.341-.064l2.239-.04c4.743-.024 8.73.396 13.152 2.2.649 2.092.649 2.092 1 4 2.085.624 2.085.624 4.621.531l2.834.016 2.983-.047 2.97.047 2.838-.016 2.615-.013L396 398a183 183 0 0 0 2-4c4.206-2.462 8.337-2.231 13.055-2.125l2.36.023c3.306.032 6.613.088 9.92.143 21.444.778 21.444.778 41.665-5.041 2.588-2.864 5-6.027 5-10-2.233-.023-2.233-.023-5.02.39l-3.259.4-1.745.227q-2.692.349-5.387.674-3.615.44-7.23.892c-21.945 2.724-43.813 3.65-65.921 3.667l-3.059.004C352.06 383.247 325.975 381.3 300 377m-104 25c-.15 2.075-.15 2.075 1 4 13.477 5.7 28.266 1.125 41.434-3.222L240 402v-2c-1.683-.313-1.683-.313-3.824-.259l-2.528-.019-2.765.012-2.81-.005q-2.955-.002-5.907.01c-3.02.01-6.04 0-9.06-.012q-2.862 0-5.723.007l-2.753-.012-2.547.02-2.248.004c-2.084.1-2.084.1-3.835 2.254m334-2v2a97 97 0 0 0 7.25 2.563c.682.22 1.364.442 2.066.67 6.354 2.041 11.813 2.974 18.496 3.017 1.173.03 1.173.03 2.37.063 5.338.035 9.117-.715 13.818-3.313.167-2.167.167-2.167-1-4-1.518-1.518-2.852-1.134-4.969-1.145l-2.548-.02-2.768-.003-2.82-.01q-2.957-.007-5.915-.007c-3.033-.002-6.066-.02-9.1-.04q-2.863-.005-5.728-.005l-2.774-.022-2.538.01-2.252-.005z"/><path fill="#c9d1c4" d="m253.433 153.604 2.942.708q3.232.657 6.469 1.293l1.727.353c6.397 1.288 12.841 2.127 19.316 2.922 1.89.233 3.777.477 5.665.723 4.143.527 8.294.967 12.448 1.397l2.497.272c21.188 2.231 42.423 2.036 63.703 1.989 5.17-.012 10.339-.005 15.508.007 30.694.058 61.357-.402 91.854-4.206l4.385-.52c7.567-.91 15.103-1.937 22.615-3.23l2.087-.358a415 415 0 0 0 8.496-1.571c6-.979 6-.979 8.34.652 2.35 3.018 3.143 6.33 2.906 10.172-.73 3.345-2.42 6.032-4.391 8.793l-1.715 2.527c-2.721 2.945-5.394 4.136-9.098 5.41l-2.11.748C450.148 201.232 380.202 201.73 321 195l-3.018-.325c-25.27-2.77-58.684-6.492-76.619-26.331-1.844-3.171-2.031-4.72-1.363-8.344 3.203-6.462 6.545-7.796 13.433-6.396"/><path fill="#c9d1c4" d="M356.218 128.87c3.365-.134 6.728-.226 10.094-.307l3.26-.142c5.002-.07 5.002-.07 7.428.579.176 2.758.176 2.758-1 6-.346 5.827-.424 12.318 1 18h2c-.304-2.357-.304-2.357-1-5.25-2.28-13.453-2.28-13.453 1-18.75 9.608-3.86 21.79-1.313 31.806-.222 3.21.325 6.422.516 9.643.69 6.201.363 12.371.907 18.551 1.532l2.364.227c26.375 2.562 52.166 7.45 76.636 17.773-2.84 2.398-6.162 2.78-9.71 3.402l-2.036.371c-2.208.398-4.418.783-6.629 1.165l-2.296.401c-10.513 1.828-21.026 3.385-31.642 4.474-1.073.11-2.147.222-3.253.337-3.475.33-6.952.608-10.434.85l-2.023.142c-19.104 1.273-38.277 1.102-57.415 1.108l-2.684.002c-37.498.017-74.71-.988-111.827-6.783a445 445 0 0 0-8.836-1.25q-2.514-.357-5.028-.719l-2.23-.285c-1.977-.309-1.977-.309-4.957-1.215-.957-1.928-.957-1.928-1-4 1.75-1.16 1.75-1.16 4.332-2.062l2.807-1L266 143l2.427-.812c13.626-4.378 27.437-7.09 41.573-9.188l2.932-.441c12.42-1.838 24.78-3.16 37.335-3.483q2.976-.084 5.95-.207"/><path fill="#fdfdfd" d="m400.052 94.563 2.428.105 2.965.11q1.778.108 3.555.222l2.093.12c5.91.338 11.815.757 17.72 1.193l2.817.206A3861 3861 0 0 1 451 98l2.251.176a485 485 0 0 1 45.687 5.762c.7.12 1.4.242 2.12.367 13.555 2.378 26.736 5.79 39.817 10.07l2.602.805c6.995 2.29 13.276 5.573 18.523 10.82.438 2.313.438 2.313 0 5-8.347 10.434-23.504 15.022-36.105 17.871-5.058.344-8.942-1.791-13.27-4.121-16.457-8.467-34.188-11.447-52.312-14.375l-2.08-.336c-2.408-.373-4.82-.707-7.233-1.039l-3.36-.5c-8.504-1.184-16.956-1.677-25.536-1.884q-2.747-.07-5.493-.157l-1.847-.057-3.724-.118a478 478 0 0 0-9.55-.207 299 299 0 0 1-9.377-.26c-1.758-.059-3.518-.055-5.277-.051-5.348-.27-5.348-.27-7.836-1.766-.86-4.21-.215-7.914 1-12 2.258-2.605 2.258-2.605 5.125-4.187 4.113-2.445 6.773-4.732 9.375-8.813 2.836-3.859 2.836-3.859 5.552-4.437m-170.489 53.375A738 738 0 0 1 242 152l-.855 1.211c-3.237 5.019-3.733 9.002-3.72 14.89l-.041 2.842c-.043 3.227-.057 6.454-.071 9.682q-.038 3.511-.08 7.023-.094 8.403-.152 16.806-.089 11.933-.209 23.865l-.018 1.781-.072 7.282A51850 51850 0 0 0 236 324l-1.81-.61-2.407-.808-2.372-.797c-4.502-1.466-9.069-2.718-13.632-3.978l-2.181-.623-1.953-.546C210 316 210 316 208 314c-.259-1.67-.259-1.67-.272-3.705l-.03-2.34-.001-2.575-.026-2.713c-.026-2.988-.038-5.976-.05-8.964l-.051-6.31a7189 7189 0 0 1-.113-16.744c-.057-9.857-.134-19.714-.21-29.57l-.025-3.24c-.162-21.117-.639-42.22-1.337-63.326l-.105-3.172-.093-2.713c-.191-7.543-.014-13.73 5.313-19.628l1.2-1.445c4.885-4.903 11.696-1.344 17.363.382"/><path fill="#fcfcfc" d="M354.941 94.859c4.624-.24 4.624-.24 6.739 1.61l1.195 2.031c2.279 3.504 4.601 5.838 7.875 8.437 3.907 3.342 5.396 5.84 6.227 10.887.028 2.667-.078 4.645-.977 7.176-2.41.628-2.41.628-5.633.637l-1.756.029q-1.882.027-3.765.024c-3.328-.004-6.655.076-9.983.142l-2.033.033c-31.914.567-69.95 4.025-98.392 19.572-5.41 2.809-8.62 3.27-14.438 1.563l-1.652-.468C214.132 139.541 214.132 139.541 208 131c-.75-2.438-.75-2.438 0-5 12.447-17.187 47.983-19.949 67-23l3.08-.507c24.112-3.94 48.647-6.73 73.088-7.434a94 94 0 0 0 3.773-.2"/><path fill="#fdfdfd" d="M551.383 156.453c2 1.445 3.826 2.849 5.617 4.547l1.254 1.181c3.386 3.55 4.315 6.1 4.31 10.978l-.078 2.368-.022 2.552c-.029 2.805-.092 5.609-.155 8.413q-.04 3.004-.072 6.008a2560 2560 0 0 1-.117 9.536c-.127 8.877-.118 17.749-.07 26.626.048 9.054.049 18.108.025 27.162-.013 5.806-.01 11.61.031 17.415.04 5.752.035 11.502 0 17.254q-.008 3.245.03 6.49c.034 2.98.013 5.955-.022 8.935l.07 2.672c-.064 2.453-.144 4.183-1.184 6.41-2.868 1.72-5.742 2.366-9 3a460 460 0 0 0-4.527 1.605 2166 2166 0 0 0-6.693 2.408l-2.182.78-1.953.704C535 324 535 324 533 324c-.223-2.522-.301-4.938-.303-7.465l-.026-2.42c-.026-2.684-.038-5.368-.05-8.053l-.05-5.666q-.054-6.048-.092-12.096c-.04-6.285-.094-12.57-.15-18.854l-.058-6.277-.028-3.13-.081-9.396c-.133-15.59-.32-31.18-.6-46.768q-.062-3.387-.117-6.775c-.11-6.701-.247-13.4-.445-20.1l-.078-2.651a677 677 0 0 0-.293-7.494l-.074-2.2c-.279-5.476-1.704-9.59-5.555-13.655 9.663-3.221 17.796.217 26.383 5.453"/><path fill="#362e33" d="M315.563 222.625c5.248.14 8.638 1.77 12.437 5.375 6.322 8.07 10.318 17.693 14.647 26.913C356.263 287.441 356.263 287.441 380 311c-1.751-28.242-4.494-56.717-17.68-82.293C361 226 361 226 361 224c6.364-1.938 14.814-2.723 21 0 4.161 5.899 2.417 15.266 2.086 22.059a860 860 0 0 0-.083 6.786 622 622 0 0 1-.434 16.082c-.228 6.096-.332 12.191-.427 18.29-.152 9.468-.37 18.934-.695 28.398l-.09 2.851-.095 2.58-.08 2.254C382 325 382 325 381 326c-4.748.957-8.355.172-12.437-2.375-21.087-15.698-31.868-44.398-43.28-67.196A634 634 0 0 0 322 250l-1.245-2.435-1.28-2.42-1.146-2.188c-1.503-2.213-3.122-3.473-5.329-4.957.684 28.074 4.69 57.156 17.715 82.402C332 323 332 323 332 325c-6.364 1.938-14.814 2.723-21 0-4.161-5.899-2.417-15.266-2.086-22.059q.055-3.393.083-6.786c.067-5.365.228-10.72.434-16.082.228-6.096.332-12.191.427-18.29.152-9.468.37-18.934.695-28.398l.09-2.851.095-2.58.08-2.254c.333-3.116 1.949-2.933 4.745-3.075"/><path fill="#373034" d="M459.902 227.906C461 229 461 229 461.145 230.664c-.36 2.118-.73 4.228-1.145 6.336l-.348 2.34-.402 2.222-.36 2.067L458 245c-5.013-.369-9.98-2.532-14.746-4.062-12.318-3.55-28.631-4.033-40.18 2.082-2.274 1.449-4.169 3.075-6.074 4.98-.433 2.595-.433 2.595-.437 5.5l-.122 2.969c.281 2.679.281 2.679 2.532 3.812 3.956.94 7.857 1.362 11.902 1.719q2.565.255 5.129.512 3.56.35 7.12.69c13.474 1.322 26.813 3.823 35.876 14.798 4.665 6.7 4.952 14.066 4 22-1.608 6.336-3.994 10.829-9 15l-1.336 1.266c-9.259 8.491-21.232 10.325-33.297 10.05-9.925-.518-21.224-4.173-28.367-11.316.414-3.618 1.558-6.967 2.813-10.375.315-.895.631-1.79.957-2.71L396 300c4.197-.01 8.304 3.3 11.871 5.385 7.371 4.14 14.511 4.982 22.879 4.928l2.655-.013c7.799-.135 16.299-.5 22.783-5.363 3.025-3.233 3.167-5.691 3.082-9.972-.153-2.143-.153-2.143-1.77-4.277-6.702-4.524-14.335-5.476-22.187-6.625-8.73-1.37-17.04-2.867-25.313-6.063l-2.34-.895c-5.181-2.267-8.472-5.467-11.66-10.105l-1.035-1.48c-3.53-6.387-3.2-16.202-1.238-23.06.96-2.023 1.924-3.67 3.273-5.46l1.012-1.412c3.14-4.124 6.378-6.255 11.05-8.4l1.854-.905c14.201-6.801 34.892-5.091 48.986 1.623"/><path fill="#e6d480" d="M379.41 28.602c9.748 5.263 15.27 16.7 18.735 26.703 1.136 4.198 1.149 8.307 1.105 12.633l.023 2.302c-.043 12.845-5.286 23.885-13.66 33.53L384 105l-3-1c-.492-1.766-.492-1.766-.66-4.035l-.217-2.451-.185-2.576q-.192-2.52-.41-5.036c-.055-.747-.11-1.495-.165-2.266L379 86h-2c-.651 3.764-.975 7.422-1.14 11.238l-.173 3.325-.113 3.19L375 106c-2.484.032-3.769-.831-5.746-2.277-9.406-9.233-13.448-21.606-13.692-34.66C355.702 53.61 363.24 40.646 374 30c2.094-2.02 2.524-2.119 5.41-1.398"/><path fill="#383135" d="m523.063 148.5 2.937.5c.625 1.625.625 1.625 1 4l1.995 2.471c3.022 4.43 2.54 9.176 2.466 14.361l-.003 3.128a754 754 0 0 1-.046 6.518c-.037 3.34-.041 6.68-.04 10.02q-.015 3.167-.036 6.334l-.007 3.043-.038 2.792-.024 2.469L531 206l-2 1-1.664-1.773c-3.008-2.868-5.785-3.698-9.711-4.852l-1.902-.617c-12.046-3.677-24.481-4.162-36.973-4.133l-2.229-.002c-13.214.016-25.642 1.586-38.655 3.89-36.531 6.212-76.672 3.79-113.241-1.513l-1.77-.253C313.36 196.36 313.36 196.36 311 194a150 150 0 0 1 17.831.712c44.446 4.203 90.367 1.875 134.606-3.65l1.82-.222c14.104-1.764 27.588-5.91 41.062-10.307 1.408-.446 2.83-.847 4.255-1.236 5.69-1.69 8.479-5.239 11.426-10.297 1.577-4.73 1.757-8.417-.375-12.875-1.453-2.222-1.453-2.222-3.625-3.125.84-3.467 1.497-3.918 5.063-4.5"/><path fill="#fafafa" d="M300 377c2.325.108 2.325.108 5.613.61l3.676.536 1.981.299c3.476.52 6.958.99 10.44 1.461l2.15.29c19.008 2.54 37.866 2.98 57.015 2.991l2.998.004c18.899-.003 37.704-.63 56.502-2.628l3.866-.398c8.608-.894 17.198-1.888 25.759-3.165-2.11 7.142-2.11 7.142-5 10a47 47 0 0 1-6.5 2.188l-1.703.498c-12.337 3.37-25.485 2.375-38.14 2.143a830 830 0 0 0-7.364-.087l-2.254-.056c-4.828-.024-7.967.64-12.039 3.314l-1 3c-3.446.687-6.994.463-10.5.438l-2.996.06-2.848-.002-2.63.006L375 398l-.354-1.906L374 394c-5.108-2.083-9.795-2.25-15.25-2.125l-2.35.023c-3.282.032-6.564.088-9.845.143-31.547.483-31.547.483-41.555-5.041-2.588-2.864-5-6.027-5-10"/><path fill="#f4f5f4" d="M668 58c2.838-1.237 3.23-1.088 6 0 9.86 4.78 14.071 12.8 18.688 22.25l.865 1.73c4.81 10.305 5.932 20.922 5.783 32.116-.024 1.93-.02 3.86-.014 5.79-.045 10.238-.045 10.238-2.322 15.114-4.574-4.162-7.734-8.833-11-14.062l-1.61-2.571C680.53 112.09 677.364 106 675 99l-1.07-3.02C670.36 85.256 665.173 69.307 668 58m-566 0c2.578 7.822-1.076 19.19-3 27l-.504 2.068C94.2 104.206 86.39 120.368 75 134l-2 1c-5.558-11.116-3.405-32.103.019-43.694 3.906-11.687 9.967-26.396 21.075-32.712 2.809-.875 4.996-1.018 7.906-.594"/><path fill="#3c3439" d="M448 96c2.011-.226 3.858-.28 5.875-.25l1.974.018c17.483.327 34.97 1.981 52.151 5.232l2.376.445c14.136 2.697 28.38 5.692 41.374 12.055l1.698.825c3.941 2.049 6.568 4.462 9.552 7.675l2 2a82 82 0 0 1 .23 7.21v2.193q-.006 2.308-.024 4.615c-.018 2.313-.02 4.626-.02 6.939-.044 19.424-.044 19.424-1.186 25.043h-2l-1.125-2.562c-4.012-8.422-12.66-12.16-20.875-15.438l-2.531-1.168c-2.78-.937-4.417-.826-7.282-.332-2.394.406-2.394.406-4.187.5v-2l-2-1 1.844-.445c18.747-4.479 18.747-4.479 34.351-14.887 1.146-2.375 1.13-4.066.805-6.668-5.186-6.942-16.159-9.35-24-12l-3.187-1.125c-9.16-3.053-18.565-4.679-28.051-6.37a442 442 0 0 1-7.95-1.54c-12.283-2.43-24.54-3.895-37-5.014l-1.906-.174q-2.58-.23-5.16-.452C451 99 451 99 448 98z"/><path fill="#c8d0c3" d="M242 331c21.536 9.929 35.595 19.206 49 39-4.298 1.433-7.398.153-11.687-1l-2.556-.684C265.73 365.236 253.345 361.213 245 353l-1.687-1.598c-2.055-3.76-1.629-7.446-1.5-11.652l.04-2.547q.054-3.101.147-6.203"/><path fill="#c6cdc1" d="M528 331c.325 2.693.28 5.415.313 8.125l.087 2.305c.06 5.28-.733 8.677-4.4 12.57-9.795 8.356-23.13 12.066-35.312 15.438l-1.904.533c-3.164.826-4.604 1.09-7.784.029 4.23-6.628 8.01-9.91 15.29-12.832 7.05-3.038 12.05-8.202 16.71-14.168-.987.59-1.975 1.178-2.992 1.785q-1.94 1.14-3.883 2.277l-1.973 1.182-1.894 1.104-1.746 1.031L497 351l-2-1c5.809-5.767 12.658-9.234 19.875-12.875l3.492-1.797C526.81 331 526.81 331 528 331"/><path fill="#f8f8f8" d="M560 343c1.105 3.916 1.168 7.098 0 11-3.658 4.164-9.153 6.506-14 9q-1.913 1.043-3.824 2.09c-14.143 7.566-29.244 12.503-44.614 16.91l-3.286.955-3.085.858-2.743.769c-2.535.433-4.039.244-6.448-.582l6.742-3.37q4.44-2.22 8.875-4.442c10.228-5.122 10.228-5.122 15.004-7.446 9.604-4.686 18.804-9.957 28.019-15.365a904 904 0 0 1 11.485-6.565l2.064-1.171C558.881 343 558.881 343 560 343"/><path fill="#f6f6f6" d="M212 344c8.15 3.946 15.971 8.232 23.75 12.875 8.487 5.016 17.042 9.723 25.93 13.997 4.571 2.222 9.108 4.514 13.652 6.792q3.99 1.998 7.98 3.992L288 384c-3.296 1.085-5.414.893-8.754.031l-2.81-.72-2.998-.811-3.106-.83c-15.473-4.245-30.32-9.797-44.332-17.67l-1.625-.877c-4.36-2.576-6.41-5.833-8.75-10.248l-1.074-1.918C212 346.318 212 346.318 212 344"/><path fill="#f2f3f2" d="M14 190c10.089 0 19.463 7.893 26.48 14.471C47.24 211.27 53.278 219.14 57 228c-10.606-.922-18.63-5.686-27-12l-2.687-1.812C21.287 208.488 16.596 200.884 14 193z"/><path fill="#f3f4f3" d="M756 190c-.275 8.54-6.222 17.02-11.91 23.094-8.062 7.354-17.486 12.322-28.09 14.906l-3-1c26.973-41.751 26.973-41.751 43-37"/><path fill="#f9f9f9" d="M559 320c-.636 4.8-2.594 8.67-4.75 12.938l-1.016 2.091c-3.941 7.876-8.294 12.507-15.922 16.909l-2.048 1.244c-3.71 2.189-3.71 2.189-5.264 2.818l-2-1 1.438-1.812c2.288-3.205 2.67-5.673 2.597-9.497l.018-2.513q.01-2.61-.063-5.219c.045-2.536.183-4.559 1.01-6.959 2.394-2.124 4.985-3.02 8-4l2.014-.761c1.92-.715 3.85-1.36 5.798-1.989l1.983-.668c2.86-.94 5.173-1.582 8.205-1.582"/><path fill="#f2f2f2" d="M14 118c4.516.602 7.818 2.305 11.688 4.563l1.859 1.077C40.422 131.276 49.205 140.752 56 154v2c-4.495-.552-7.73-2.42-11.437-4.875l-1.829-1.197C18.794 133.988 18.794 133.988 14 122c-.187-2.375-.187-2.375 0-4"/><path fill="#f2f3f2" d="M756 118c0 6.504-3.68 11.526-7.992 16.125C724.805 156 724.805 156 714 156c5.291-18.45 21.45-28.465 37.262-37.258C753 118 753 118 756 118"/><path fill="#f1f1f1" d="M621 302c-1.505 3.501-3.532 5.816-6.191 8.527l-1.265 1.29a645 645 0 0 1-4.106 4.12l-1.422 1.422C599.593 325.751 590.736 333.16 581 340l-1.973 1.407C568.376 349 568.376 349 567 349c-1.295-3.963-1.3-7.04 0-11 3.754-4.065 8.95-6.699 13.643-9.53 3.947-2.462 7.671-5.219 11.42-7.97l4.503-3.266q4.426-3.224 8.836-6.468l2.096-1.541q1.956-1.44 3.908-2.887l1.75-1.291 1.526-1.13C617.036 302.28 618.03 302 621 302"/><path fill="#f2f3f2" d="M633.188 190.875c2.601.421 3.622.928 5.468 2.848 6.212 8.985 9.522 18.379 9.532 29.214l.037 2.131c.011 4.104-.365 7.176-2.225 10.932-3.725-3.294-5.767-6.8-7.937-11.187l-1.045-2.106c-2.456-5.132-4.394-10.32-6.018-15.77l-.629-2.088c-1.225-4.404-1.65-8.278-1.371-12.849 1-1 1-1 4.188-1.125M140 191c1.516 1.516 1.206 2.843 1.25 4.957-.067 5.312-1.428 9.778-3.25 14.73l-.94 2.615c-2.063 5.531-4.418 10.8-7.31 15.948l-.996 1.788c-.957 1.603-.957 1.603-2.754 3.962h-3c-3.34-13.103-.586-26.148 6.063-37.687 3.036-4.921 5.003-6.781 10.937-6.313"/><path fill="#f1f2f1" d="M149 302c3.716.547 6.03 1.434 9.012 3.703l2.27 1.703 2.405 1.844 5.106 3.832 2.619 1.975c3.999 3.002 8.04 5.946 12.088 8.88l2.25 1.653c3.191 2.322 6.334 4.534 9.82 6.39 5.262 2.833 5.262 2.833 7.43 5.02.883 3.83.69 7.15 0 11-8.129-3.99-14.986-9.352-22-15l-1.562-1.241c-7.512-5.998-14.434-12.551-21.25-19.322l-2.448-2.42-2.26-2.27-2.034-2.042C149 304 149 304 149 302"/><path fill="#f9f9f9" d="M211 320c4.904.796 9.497 2.413 14.188 4l2.482.828c6.049 2.031 6.049 2.031 8.33 3.172.303 1.962.303 1.962.379 4.516l.103 2.793.08 2.941q.09 2.851.192 5.703l.072 2.568c.18 2.563.618 4.973 1.174 7.479-13.494-5.752-19.457-14.198-25.296-27.216-.878-2.224-1.378-4.418-1.704-6.784"/><path fill="#3c3539" d="M251 194c4.735 1.483 9.294 3.31 13.89 5.173 15.781 6.354 30.027 9.887 46.926 11.748 8.182.906 16.163 2.24 24.184 4.079-4.52 4.52-11.57 3.36-17.553 3.39-19.983-.274-48.328-4.716-63.521-19.394-1.403-1.619-2.707-3.237-3.926-4.996"/><path fill="#eff0ef" d="M592 228h1c1.55 12.405-2.36 25.14-6.875 36.5l-.992 2.498c-2.224 5.355-4.907 10.187-8.133 15.002-3.233-4.477-2.697-9.686-2-15 2.556-12.343 7.879-29.879 17-39"/><path fill="#f0f1f0" d="M177 228c3 1 3 1 4.195 2.82l1.145 2.38 1.277 2.646 1.32 2.841 1.354 2.875c3.382 7.35 5.906 14.555 7.709 22.438l.578 2.027c.539 2.518.592 4.9.61 7.473l.042 2.844c-.235 2.716-.845 4.335-2.23 6.656-8.83-16.673-17.417-35.628-16-55"/><path fill="#ebeceb" d="M48 281c16.883-.412 32.03.084 48.063 5.563l1.863.635c1.672.618 1.672.618 4.074 1.802l-1 2c-3.469.487-7.001.331-10.5.313l-3.151-.011C78.3 291.176 69.796 290.036 61 288l-3.418-.727C52.084 285.98 52.084 285.98 50 285c-1.125-2.059-1.125-2.059-2-4"/><path fill="#f0f0f0" d="M603 308c-6.009 5.02-12.231 9.67-18.625 14.188l-2.133 1.51C568.99 333 568.99 333 567 333a103 103 0 0 1-.437-7.312l-.14-2.092c-.044-2.022.002-3.655.577-5.596 2.223-1.558 3.51-2.237 6-3l2.938-1.027c6.08-1.807 6.08-1.807 8.233-2.435 1.898-.558 3.79-1.137 5.68-1.718l3.774-1.132 1.793-.557c3.132-.92 4.393-1.194 7.582-.131"/><path fill="#ecedec" d="m708.813 280.688 3.239-.017c7.691.072 7.691.072 9.948 2.329-12.783 6.825-28.167 8.177-42.437 8.188l-2.756.037-2.616.005-2.368.013L670 291l-1-2c12.07-7.144 26.142-8.25 39.813-8.312"/><path fill="#f2f2f2" d="M167 307c6.507 1.341 12.836 3.058 19.188 5 .863.26 1.726.52 2.615.79a359 359 0 0 1 4.973 1.544c2.158.688 2.158.688 4.159 1.03 1.655.347 1.655.347 4.065 1.636.75 2.564.565 4.982.375 7.625l-.082 2.14c-.07 1.747-.178 3.491-.293 5.235-4.952-1.625-8.814-4.489-13-7.5l-2.25-1.605a591 591 0 0 1-14.312-10.582l-1.678-1.278A143 143 0 0 1 167 308z"/><path fill="#f0f1f0" d="M530 400c1.581-.254 1.581-.254 3.824-.259l2.528-.019 2.765.012 2.81-.005q2.955-.002 5.907.01c3.02.01 6.04 0 9.06-.012q2.862 0 5.723.007l2.753-.012 2.547.02c.742 0 1.484.002 2.248.004C572 400 572 400 574 402c0 2 0 2-1 4-4.757 2.053-9.167 2.42-14.312 2.438l-2.352.009c-8.964-.18-18.286-2.422-26.336-6.447z"/><path fill="#f2f3f2" d="m201.969 399.855 2.548-.02 2.768-.003 2.82-.01q2.958-.007 5.915-.007c3.033-.002 6.066-.02 9.1-.04q2.863-.005 5.728-.005l2.774-.022 2.538.01 2.252-.005L240 400v2c-8.763 4.352-19.583 6.57-29.312 6.562l-2.041.007c-4.783-.16-8.411-1.328-12.647-3.569 0-4.558 1.94-5.125 5.969-5.145"/><path fill="#4d484a" d="m509 153 1 2c-31.001 5.905-64.397 10.148-96 9v-1c-1.662-.183-1.662-.183-3.764-.19l-2.487-.05-2.718-.041-2.757-.056a3282 3282 0 0 0-8.774-.163 4251 4251 0 0 1-11.531-.219l-2.718-.04-2.487-.052-2.207-.038L373 162v-1a83 83 0 0 1 4.991-.19l3.313-.05 1.795-.02q2.8-.032 5.6-.077 4.981-.074 9.964-.137c35.58-.435 35.58-.435 71.024-3.401l4.563-.53c8.636-1.017 17.242-2.138 25.778-3.82 3.247-.62 5.87-1.113 8.972.225"/><path fill="#443d41" d="m441.93 362.832 1.925-.01q1.993-.007 3.988-.007c2.047-.003 4.094-.02 6.141-.04q1.942-.005 3.883-.005l1.865-.022c1.701.01 1.701.01 4.268.252v2c-1.828.598-1.828.598-4.25 1.063l-2.39.472L455 367l-1.847.519c-4.13.923-8.377.666-12.59.668l-2.854.038c-8.534.018-8.534.018-12.709-2.225 5.282-3.048 10.96-3.157 16.93-3.168M409 94c2.025-.243 2.025-.243 4.871-.23l3.159.003 3.408.04 3.425.019c9.07.082 18.095.471 27.137 1.168l-3 1v2c-1.75.151-1.75.151-4.215.012l-2.747-.14-2.976-.184-2.998-.167q-3.05-.17-6.1-.352a522 522 0 0 0-8.21-.396l-4.629-.21-2.195-.082c-1.649-.085-3.292-.27-4.93-.481z"/></svg>